<?xml version="1.0" encoding="UTF-8"?> <!-- Generator: Adobe Illustrator 25.4.1, SVG Export Plug-In . SVG Version: 6.00 Build 0) --> <svg xmlns="http://www.w3.org/2000/svg" xmlns:xlink="http://www.w3.org/1999/xlink" version="1.1" x="0px" y="0px" viewBox="0 0 1440 440" style="enable-background:new 0 0 1440 440;" xml:space="preserve"> <style type="text/css"> .st0{fill:#E4D8FF;} .st1{fill:#783BFF;} .st2{fill:url(#SVGID_1_);} .st3{fill:#FFA172;} .st4{fill:#FF4D4D;} .st5{fill:#FFFFFF;} .st6{fill:#F294FF;} .st7{opacity:0.5;} .st8{clip-path:url(#SVGID_00000175320112107062905790000014696101730559114395_);fill:none;stroke:#FFFFFF;stroke-miterlimit:10;} .st9{clip-path:url(#SVGID_00000080205739421890161290000002942954076768507069_);fill:none;stroke:#FFFFFF;stroke-miterlimit:10;} .st10{clip-path:url(#SVGID_00000050625002842069812110000006858499377741295749_);fill:none;stroke:#FFFFFF;stroke-miterlimit:10;} .st11{clip-path:url(#SVGID_00000086687776256469950780000000570750458852869003_);fill:#F7BFFF;} .st12{fill:#F7BFFF;} .st13{fill:#9362FF;} .st14{opacity:0.75;fill:#F7BFFF;} .st15{clip-path:url(#SVGID_00000045608492517052822860000004976365378090163358_);} .st16{fill-rule:evenodd;clip-rule:evenodd;fill:#783BFF;} .st17{fill-rule:evenodd;clip-rule:evenodd;fill:url(#SVGID_00000178163554144988776820000004451383428336137879_);} .st18{fill:url(#SVGID_00000177483089865193334250000001936541786798372766_);} .st19{fill:url(#SVGID_00000151512471662687466080000018316195351021675453_);} .st20{fill:none;stroke:url(#SVGID_00000083059484602304004160000006436395402000126347_);stroke-width:40;stroke-linecap:round;stroke-linejoin:round;stroke-miterlimit:10;} .st21{fill:none;stroke:#FF4D4D;stroke-width:0.75;stroke-linecap:round;stroke-linejoin:round;stroke-miterlimit:10;} .st22{fill:none;stroke:url(#SVGID_00000064326856447849343970000004770226788819033728_);stroke-width:25;stroke-linecap:round;stroke-linejoin:round;stroke-miterlimit:10;} .st23{fill:none;stroke:url(#SVGID_00000148636387654046440960000006514048315927300269_);stroke-width:3;stroke-linecap:round;stroke-linejoin:round;stroke-miterlimit:10;} .st24{fill:url(#SVGID_00000164480198693519546460000009807625087626110105_);} .st25{fill:none;stroke:#FF4D4D;stroke-miterlimit:10;} .st26{fill:none;stroke:#FFA172;stroke-linecap:round;stroke-linejoin:round;stroke-miterlimit:10;} .st27{fill:url(#SVGID_00000058590863972207129990000003887087109559544489_);} .st28{fill:none;stroke:#783BFF;stroke-miterlimit:10;} .st29{fill:none;stroke:#F294FF;stroke-width:0.75;stroke-miterlimit:10;} .st30{fill:none;stroke:url(#SVGID_00000169553209106936896650000017856032700680053690_);stroke-width:2;stroke-linecap:round;stroke-linejoin:round;stroke-miterlimit:10;} .st31{fill:url(#SVGID_00000052792122366857162750000017724423816802743470_);} .st32{fill:none;stroke:#FFA172;stroke-width:0.25;stroke-linecap:round;stroke-linejoin:round;stroke-miterlimit:10;} .st33{fill:none;stroke:#783BFF;stroke-linecap:round;stroke-linejoin:round;stroke-miterlimit:10;} </style> <g id="BG"> </g> <g id="Main"> </g> <g id="Stars"> <g> <defs> <path id="SVGID_00000172433179880367481150000008963787027021395856_" d="M1440,379.6c-234.85,39.31-474.69,59.87-720.72,59.87 c-246.03,0-484.43-20.56-719.28-59.87V-0.35l1440,0.01V379.6z"></path> </defs> <clipPath id="SVGID_00000145778581939799368680000018059520403023866241_"> <use xlink:href="#SVGID_00000172433179880367481150000008963787027021395856_" style="overflow:visible;"></use> </clipPath> <g style="clip-path:url(#SVGID_00000145778581939799368680000018059520403023866241_);"> <rect x="0" y="-0.04" class="st16" width="1440" height="440"></rect> <linearGradient id="SVGID_1_" gradientUnits="userSpaceOnUse" x1="720.0013" y1="719.0632" x2="720.0013" y2="-207.3547"> <stop offset="0" style="stop-color:#0B0B30;stop-opacity:0"></stop> <stop offset="1" style="stop-color:#0B0B30"></stop> </linearGradient> <rect x="0" y="-0.04" style="fill-rule:evenodd;clip-rule:evenodd;fill:url(#SVGID_1_);" width="1440" height="440"></rect> <linearGradient id="SVGID_00000049936206222209589150000015088993096855565468_" gradientUnits="userSpaceOnUse" x1="4411.3848" y1="-1059.165" x2="4411.3848" y2="-479.6908" gradientTransform="matrix(-1 0 0 -1 5564.8267 -663.8625)"> <stop offset="0" style="stop-color:#0B0B30;stop-opacity:0"></stop> <stop offset="1" style="stop-color:#0B0B30"></stop> </linearGradient> <path style="fill:url(#SVGID_00000049936206222209589150000015088993096855565468_);" d="M1306.88,439.46 c0-242.62-197.38-440-440-440H1440v440.5L1306.88,439.46z"></path> <linearGradient id="SVGID_00000148618968995763757540000014188593899691186854_" gradientUnits="userSpaceOnUse" x1="62.5242" y1="149.1308" x2="62.5242" y2="-28.5347"> <stop offset="0" style="stop-color:#0B0B30;stop-opacity:0"></stop> <stop offset="1" style="stop-color:#0B0B30"></stop> </linearGradient> <path style="fill:url(#SVGID_00000148618968995763757540000014188593899691186854_);" d="M103.9-28.53 c-11.68,0-21.15,9.47-21.15,21.15c0,52.82-34.84,97.66-82.75,112.74v43.77c71.5-16.17,125.05-80.2,125.05-156.52 C125.05-19.07,115.58-28.53,103.9-28.53z"></path> <linearGradient id="SVGID_00000006686652807344594430000007531456205496499845_" gradientUnits="userSpaceOnUse" x1="5562.6138" y1="4427.251" x2="5742.3545" y2="4448.2202" gradientTransform="matrix(0 1 -1 0 5773.9253 -5361.8838)"> <stop offset="0" style="stop-color:#0B0B30;stop-opacity:0"></stop> <stop offset="1" style="stop-color:#0B0B30"></stop> </linearGradient> <path style="fill:none;stroke:url(#SVGID_00000006686652807344594430000007531456205496499845_);stroke-width:40;stroke-linecap:round;stroke-linejoin:round;stroke-miterlimit:10;" d=" M1399.3,227.01c0,70.19-56.9,127.09-127.09,127.09"></path> <path class="st21" d="M1399.3,227.01c0,70.19-56.9,127.09-127.09,127.09"></path> <linearGradient id="SVGID_00000018934467179876570000000016778646042274288570_" gradientUnits="userSpaceOnUse" x1="1194.1125" y1="213.8298" x2="1338.6512" y2="230.692"> <stop offset="0" style="stop-color:#0B0B30;stop-opacity:0"></stop> <stop offset="1" style="stop-color:#0B0B30"></stop> </linearGradient> <circle style="fill:none;stroke:url(#SVGID_00000018934467179876570000000016778646042274288570_);stroke-width:25;stroke-linecap:round;stroke-linejoin:round;stroke-miterlimit:10;" cx="1266.38" cy="222.26" r="60.25"></circle> <linearGradient id="SVGID_00000095304153872595292520000012485018813335995561_" gradientUnits="userSpaceOnUse" x1="1085.484" y1="111.5832" x2="1121.2283" y2="115.7532"> <stop offset="0" style="stop-color:#0B0B30;stop-opacity:0"></stop> <stop offset="1" style="stop-color:#0B0B30"></stop> </linearGradient> <circle style="fill:none;stroke:url(#SVGID_00000095304153872595292520000012485018813335995561_);stroke-width:3;stroke-linecap:round;stroke-linejoin:round;stroke-miterlimit:10;" cx="1103.36" cy="113.67" r="16.49"></circle> <linearGradient id="SVGID_00000137846461707743483450000008929789246952970686_" gradientUnits="userSpaceOnUse" x1="163.7463" y1="226.6481" x2="249.7394" y2="53.8267"> <stop offset="0" style="stop-color:#0B0B30;stop-opacity:0"></stop> <stop offset="1" style="stop-color:#0B0B30"></stop> </linearGradient> <circle style="fill:url(#SVGID_00000137846461707743483450000008929789246952970686_);" cx="201.65" cy="150.47" r="61.01"></circle> <circle class="st25" cx="189.65" cy="150.47" r="61.01"></circle> <path class="st26" d="M258.07,439.96c-31.47-58.63-93.34-98.5-164.54-98.5c-33.95,0-65.78,9.07-93.21,24.91"></path> <linearGradient id="SVGID_00000183962577437879281620000002121139897751045779_" gradientUnits="userSpaceOnUse" x1="920.8514" y1="432.3366" x2="1123.1368" y2="432.3366"> <stop offset="0" style="stop-color:#0B0B30;stop-opacity:0"></stop> <stop offset="1" style="stop-color:#0B0B30"></stop> </linearGradient> <path style="fill:url(#SVGID_00000183962577437879281620000002121139897751045779_);" d="M920.85,482.91 c0-55.86,45.28-101.14,101.14-101.14s101.14,45.28,101.14,101.14"></path> <circle class="st28" cx="1280.47" cy="222.26" r="29.8"></circle> <circle class="st29" cx="1354.8" cy="136.11" r="9.65"></circle> <linearGradient id="SVGID_00000137821704331145432550000006932649368488640429_" gradientUnits="userSpaceOnUse" x1="7087.6172" y1="-404.7791" x2="8364.2832" y2="-404.7791" gradientTransform="matrix(-1 0 0 -1 9260.9209 27.5575)"> <stop offset="0" style="stop-color:#0B0B30;stop-opacity:0"></stop> <stop offset="1" style="stop-color:#0B0B30"></stop> </linearGradient> <path style="fill:none;stroke:url(#SVGID_00000137821704331145432550000006932649368488640429_);stroke-width:2;stroke-linecap:round;stroke-linejoin:round;stroke-miterlimit:10;" d=" M897.64,482.91c0-55.86,45.28-101.14,101.14-101.14c55.86,0,101.14,45.28,101.14,101.14"></path> <linearGradient id="SVGID_00000150096049872390479310000006063246187562125738_" gradientUnits="userSpaceOnUse" x1="112.1107" y1="544.5699" x2="268.2908" y2="230.6929"> <stop offset="0" style="stop-color:#0B0B30;stop-opacity:0"></stop> <stop offset="1" style="stop-color:#0B0B30"></stop> </linearGradient> <path style="fill:url(#SVGID_00000150096049872390479310000006063246187562125738_);" d="M382.69,439.96 c-46.72-87.05-138.59-146.24-244.29-146.24c-50.41,0-97.67,13.46-138.39,36.99v109.26H382.69z"></path> <rect x="80.81" y="192.45" transform="matrix(0.9039 -0.4276 0.4276 0.9039 -76.7795 56.5805)" class="st26" width="13.51" height="13.51"></rect> <rect x="1138.88" y="133.55" transform="matrix(0.7071 0.7071 -0.7071 0.7071 430.6238 -767.2805)" class="st32" width="5.25" height="5.25"></rect> <polygon class="st28" points="1136.3,329.34 1152.88,323.83 1154.52,341.22 "></polygon> <polygon class="st33" points="416.96,82.07 414.22,64.82 431.65,66.04 "></polygon> <path class="st5" d="M89.71,367.1c2.13,0,3.86,1.73,3.86,3.86h0.1c0-2.13,1.73-3.86,3.86-3.86V367c-2.13,0-3.86-1.73-3.86-3.86 h-0.1c0,2.13-1.73,3.86-3.86,3.86V367.1z"></path> <path class="st5" d="M1006.48,54.96c2.13,0,3.86,1.73,3.86,3.86h0.1c0-2.13,1.73-3.86,3.86-3.86v-0.1 c-2.13,0-3.86-1.73-3.86-3.86h-0.1c0,2.13-1.73,3.86-3.86,3.86V54.96z"></path> <path class="st5" d="M1298.9,358.03c2.13,0,3.86,1.73,3.86,3.86h0.1c0-2.13,1.73-3.86,3.86-3.86v-0.1 c-2.13,0-3.86-1.73-3.86-3.86h-0.1c0,2.13-1.73,3.86-3.86,3.86V358.03z"></path> <circle class="st5" cx="190.15" cy="291.07" r="2.65"></circle> <ellipse class="st5" cx="1037.52" cy="281.13" rx="1.33" ry="0.66"></ellipse> <circle class="st5" cx="423.04" cy="289.48" r="0.66"></circle> <circle class="st5" cx="1184.74" cy="198.66" r="0.66"></circle> <circle class="st5" cx="1265.34" cy="113.98" r="0.66"></circle> <circle class="st5" cx="276.5" cy="153.84" r="0.66"></circle> <circle class="st5" cx="810.34" cy="113.53" r="0.66"></circle> <circle class="st5" cx="1120.99" cy="397.95" r="1.33"></circle> <path class="st5" d="M102.59,152.12c2.21,0,4,1.79,4,4h0.11c0-2.21,1.79-4,4-4v-0.11c-2.21,0-4-1.79-4-4h-0.11c0,2.21-1.79,4-4,4 V152.12z"></path> <circle class="st5" cx="478.82" cy="289.48" r="0.66"></circle> <circle class="st5" cx="173.5" cy="398.39" r="0.66"></circle> <circle class="st5" cx="575.5" cy="398.39" r="0.66"></circle> <circle class="st5" cx="72.83" cy="48.8" r="0.66"></circle> <circle class="st5" cx="30.4" cy="261.38" r="0.66"></circle> <circle class="st5" cx="192.05" cy="98.12" r="0.66"></circle> <circle class="st5" cx="1344.7" cy="256.21" r="0.66"></circle> <circle class="st5" cx="1373.03" cy="110.67" r="2.65"></circle> </g> </g> </g> <g id="UI"> </g> </svg> 